HIERARCHY
ROOT hip
{
	OFFSET 0.000000 0.000000 0.000000 
	CHANNELS 6 Xposition Yposition Zposition Xrotation Zrotation Yrotation
	JOINT abdomen
	{
		OFFSET 0.000000 3.402643 0.000000 
		CHANNELS 3 Xrotation Zrotation Yrotation
		JOINT chest
		{
			OFFSET 0.000000 8.438565 -0.680529 
			CHANNELS 3 Xrotation Zrotation Yrotation
			JOINT neck
			{
				OFFSET 0.000000 10.207942 -0.272212 
				CHANNELS 3 Xrotation Zrotation Yrotation
				JOINT head
				{
					OFFSET 0.000000 3.130431 0.000000 
					CHANNELS 3 Xrotation Zrotation Yrotation
					End Site
					{
						OFFSET 0.000000 3.130435 0.000000 
					}
				}
			}
			JOINT lCollar
			{
				OFFSET 3.470700 6.669187 -0.816635 
				CHANNELS 3 Yrotation Zrotation Xrotation
				JOINT lShldr
				{
					OFFSET 3.198488 0.000000 0.000000 
					CHANNELS 3 Zrotation Yrotation Xrotation
					JOINT lForeArm
					{
						OFFSET 10.139888 0.000000 0.000000 
						CHANNELS 3 Yrotation Zrotation Xrotation
						JOINT lHand
						{
							OFFSET 8.370511 0.000000 0.000000 
							CHANNELS 3 Zrotation Yrotation Xrotation
							End Site
							{
								OFFSET 4.083176 0.000000 0.000000 
							}
						}
					}
				}
			}
			JOINT rCollar
			{
				OFFSET -3.470700 6.669187 -0.816635 
				CHANNELS 3 Yrotation Zrotation Xrotation
				JOINT rShldr
				{
					OFFSET -3.198488 0.000000 0.000000 
					CHANNELS 3 Zrotation Yrotation Xrotation
					JOINT rForeArm
					{
						OFFSET -10.139888 0.000000 0.000000 
						CHANNELS 3 Yrotation Zrotation Xrotation
						JOINT rHand
						{
							OFFSET -8.370511 0.000000 0.000000 
							CHANNELS 3 Zrotation Yrotation Xrotation
							End Site
							{
								OFFSET -4.083176 0.000000 0.000000 
							}
						}
					}
				}
			}
		}
	}
	JOINT lThigh
	{
		OFFSET 5.308129 -1.633274 1.361059 
		CHANNELS 3 Xrotation Zrotation Yrotation
		JOINT lShin
		{
			OFFSET -2.041588 -20.007561 0.000000 
			CHANNELS 3 Xrotation Zrotation Yrotation
			JOINT lFoot
			{
				OFFSET 0.000000 -19.190928 -1.224953 
				CHANNELS 3 Xrotation Yrotation Zrotation
				End Site
				{
					OFFSET 0.000000 -2.449906 4.627600 
				}
			}
		}
	}
	JOINT rThigh
	{
		OFFSET -5.308129 -1.633274 1.361059 
		CHANNELS 3 Xrotation Zrotation Yrotation
		JOINT rShin
		{
			OFFSET 2.041588 -20.007561 0.000000 
			CHANNELS 3 Xrotation Zrotation Yrotation
			JOINT rFoot
			{
				OFFSET 0.000000 -19.190928 -1.224953 
				CHANNELS 3 Xrotation Yrotation Zrotation
				End Site
				{
					OFFSET 0.000000 -2.449906 4.627600 
				}
			}
		}
	}
}
MOTION
Frames: 20
Frame Time: 0.033333
-1.773380 55.307636 8.684021 -10.002898 5.799773 1.391298 0.000000 0.000000 0.000000 5.022991 -5.477061 5.124216 38.252949 3.189503 0.036584 -12.091651 0.739980 -0.328339 -2.938422 7.471077 25.000000 -67.578827 21.156363 -21.455008 -79.825233 -31.499268 86.480667 23.538710 -30.235380 -73.125977 -2.921869 -12.292677 23.934313 59.362026 -3.282893 75.962738 63.977425 -56.322727 79.824783 6.880729 13.725960 -80.478317 5.837546 -10.108175 14.079454 47.488415 9.494489 0.041450 -15.304410 6.455423 20.861280 8.032009 -11.449020 -2.505177 90.211487 0.798852 7.263284 8.232700 -21.525856 20.235954 
-1.764199 54.771374 8.459352 -8.222034 6.186259 2.087427 0.000000 0.000000 0.000000 2.918695 -6.417515 4.995619 39.886070 4.111210 0.086459 -12.307519 0.921376 -0.312915 -8.039679 2.076173 25.000000 -61.999340 19.296679 -23.251442 -85.974518 -26.344200 78.942993 22.664021 -31.528515 -73.190704 -2.172542 -9.479850 24.274267 57.652302 -8.929929 76.603035 56.673100 -51.697456 68.031105 10.601804 13.907048 -79.767570 7.096885 -10.471064 13.918493 48.803040 9.747313 0.038200 -19.076540 6.033932 20.798861 -2.792565 -11.656171 -2.317928 98.465424 -0.468688 7.515729 5.424422 -19.347799 15.029539 
-1.662226 55.062088 8.543251 -7.682989 7.481833 3.594196 0.000000 0.000000 0.000000 1.628378 -8.297476 4.637631 42.175991 5.957897 0.204903 -13.789065 0.027088 -0.655692 -10.917361 -0.683887 25.000000 -58.584602 15.592927 -23.556326 -90.594315 -20.587193 71.902702 22.678797 -30.811611 -73.509499 -4.278065 -5.800763 24.219572 52.109627 -16.336901 75.653481 59.231339 -44.902519 62.671711 13.570724 12.338498 -79.509605 13.310051 -12.382135 13.020707 43.682720 10.462094 0.466872 -19.916945 4.106579 19.842606 -8.677890 -13.079753 -2.595477 99.133026 -0.087450 7.623251 2.576605 -16.823328 11.542732 
-1.619507 55.976547 8.983239 -8.594877 8.662892 5.082750 0.000000 0.000000 0.000000 1.448072 -10.065210 4.276896 44.150101 7.889979 0.337997 -14.261101 -0.944836 -1.261808 -11.725724 -1.091998 24.971682 -57.852051 10.596770 -22.740074 -95.188499 -15.072983 66.377472 23.726690 -28.259960 -74.018265 -7.522951 -5.504473 23.867569 48.401352 -22.844908 75.219856 66.965607 -39.479347 70.630501 11.643624 12.664277 -79.623352 24.281368 -13.627537 11.505321 32.976547 10.716580 1.126281 -17.339186 0.336963 18.795595 -8.317168 -13.871181 -2.860752 91.830086 1.367387 7.489683 0.237977 -13.339257 14.628855 
-1.621276 57.315941 9.742110 -11.558252 9.532979 5.600099 0.000000 0.000000 0.000000 2.789958 -11.451613 3.956781 46.449726 9.711338 0.455910 -13.837907 -2.328947 -0.600963 -12.435225 -0.707674 25.000000 -58.487202 7.388750 -21.949001 -102.512978 -9.574932 71.859985 22.624552 -30.962856 -73.834717 -10.489710 -5.231422 23.576471 43.598164 -27.695318 73.461037 76.734230 -32.987888 84.859444 8.252031 14.058643 -79.895996 39.329922 -13.004240 9.263339 18.757601 8.423856 1.468541 -8.955082 -4.519198 17.255676 -2.978114 -14.079547 -3.097281 78.508820 4.023554 7.080674 -2.956736 -13.812426 14.051315 
-2.054409 58.381279 9.991445 -10.188496 5.748378 4.750285 0.000000 0.000000 0.000000 -0.256849 -8.681555 4.598873 48.280685 10.879107 0.524388 -13.724228 -3.026682 1.007711 -13.118671 -0.781939 25.000000 -57.469444 6.893168 -22.206715 -107.455521 -7.818710 72.257797 22.915993 -31.450293 -74.087036 -12.594490 -2.979193 23.872972 37.719250 -29.315722 70.181732 81.203476 -26.257505 85.223503 6.950829 14.081569 -80.242767 43.732029 -7.584015 10.045942 12.793469 2.975430 0.640726 1.378832 -4.533007 12.445042 -1.532981 -7.574152 -1.065889 60.292526 5.380639 5.772105 -4.623200 -16.622040 17.669306 
-2.165999 59.180481 10.266446 -10.074945 5.981237 5.951733 0.000000 0.000000 0.000000 -1.010766 -9.773898 4.389524 49.524097 13.456141 0.720905 -13.905460 -3.645601 0.590819 -16.973774 -2.003259 24.875351 -55.368008 9.914941 -23.419104 -111.218231 -7.838657 74.212540 24.656193 -30.413162 -74.788109 -13.908219 -1.238881 24.240475 35.339401 -29.801485 68.853554 84.742699 -25.056923 91.334488 4.281242 15.643686 -80.645622 44.522118 -6.412173 10.253843 16.608219 2.934465 0.392695 5.381331 -2.895707 13.470850 3.837515 -6.894870 -0.990788 41.748459 5.934007 4.116882 -6.457097 -13.836048 21.354891 
-2.531368 59.180737 10.314820 -10.118335 4.422600 6.643317 0.000000 0.000000 0.000000 -0.414964 -8.730243 4.593506 47.976566 14.655460 0.830226 -13.866810 -3.664677 -0.165938 -18.825790 0.667759 25.000000 -57.283901 9.955923 -22.810455 -111.514130 -8.929328 74.504372 25.417381 -29.578856 -75.030937 -14.093326 -1.861328 24.069925 37.882355 -28.451536 70.131432 82.112228 -29.503874 81.111191 7.005217 10.084789 -80.628448 40.551220 -3.679609 11.987222 29.755442 4.117664 -0.168271 4.697645 1.630271 10.532026 6.597805 -4.197617 -0.227340 31.151508 5.839128 3.069668 -8.073442 -12.551377 21.666777 
-2.907641 58.400528 10.058814 -10.066302 2.230784 6.733303 0.000000 0.000000 0.000000 1.198822 -6.375569 5.052143 44.478165 14.116743 0.812588 -13.465917 -3.285774 -1.052119 -18.930948 5.498158 25.000000 -62.375160 8.163711 -20.730417 -108.333305 -10.573787 72.568565 24.828026 -29.860422 -74.887077 -13.256367 -3.930103 23.599173 42.742519 -24.861660 72.344040 78.712326 -37.068840 70.693649 7.530897 4.870253 -80.849701 32.704823 -0.722303 14.390022 49.370815 7.229666 -0.545371 1.502792 7.241257 9.745018 6.229482 -0.790140 0.770671 30.614756 5.077632 2.893834 -8.175426 -12.305511 19.068052 
-3.142750 57.069775 9.605866 -9.766126 0.577447 5.574443 0.000000 0.000000 0.000000 3.211372 -4.104894 5.472898 40.663795 12.145785 0.687711 -12.907791 -2.798649 -1.309990 -17.215693 9.615360 25.000000 -68.102036 7.972007 -18.526808 -102.240189 -13.513504 67.626404 22.176004 -31.458092 -73.781387 -10.987887 -5.843242 23.392336 46.582687 -18.755869 73.209595 82.381157 -46.623947 83.752937 4.617030 9.705441 -81.227379 22.437101 1.329175 16.480728 71.531105 10.694555 -0.591897 -3.101839 12.468116 13.575218 4.247087 2.450658 1.786364 36.731373 3.800557 3.166360 -7.005843 -14.616071 13.642282 
-3.869135 55.408825 9.195293 -8.451792 -4.308347 0.688040 0.000000 0.000000 0.000000 3.594281 0.984388 6.585427 38.016357 8.097464 0.403187 -13.790674 -1.778839 0.723000 -11.242001 12.600417 25.000000 -72.317848 11.296860 -17.301971 -91.541710 -20.551704 53.031685 12.743852 -32.598930 -68.188370 -5.247906 -7.714264 23.892710 50.124454 -10.389594 73.181480 85.936852 -56.051163 94.116013 3.239571 17.112989 -81.252495 11.563508 9.254353 20.247002 92.041222 9.882763 -1.064362 -4.831608 11.381829 7.808874 2.236375 10.731975 4.285886 43.689034 0.674123 3.175510 -11.452340 -16.295147 9.032410 
-3.998357 54.668106 8.740659 -8.465569 -6.056832 0.351951 0.000000 0.000000 0.000000 4.998830 3.356355 7.090348 37.603390 6.720909 0.297519 -15.033701 -1.073582 1.221700 -13.881692 9.598663 25.000000 -74.795868 18.703369 -17.540249 -87.370544 -16.856020 67.486992 5.646223 -26.812460 -62.937046 -2.857962 -5.809109 24.394535 48.575222 -3.041752 70.866791 89.960045 -63.297882 103.153946 -1.510218 19.403780 -82.425674 1.278656 11.756675 21.315849 104.447464 12.810935 -0.340356 -4.822434 17.394915 13.669305 3.231023 12.758167 4.853179 48.404240 0.775153 3.652140 -18.243496 -16.555330 7.033096 
-3.918876 54.729836 8.509864 -8.444187 -6.549945 -0.095051 0.000000 0.000000 0.000000 5.064238 4.464995 7.338954 39.263798 6.006337 0.236729 -15.877278 -1.430981 1.442273 -11.780596 6.531115 25.000000 -75.256607 24.717007 -18.739508 -81.348061 -19.160172 76.940567 -3.815151 -15.285941 -58.615475 -1.061605 -4.040358 24.672146 46.376999 1.660156 68.928291 -81.279648 -108.996948 -69.664383 -6.863362 18.863485 -84.376450 -5.985040 11.563110 20.947166 108.587898 14.957750 0.205806 -5.090394 16.514513 12.331552 7.714685 12.352802 4.648075 47.234692 0.795055 3.550544 -19.355215 -11.366657 17.134312 
-3.753044 55.382847 8.535738 -7.531306 -6.641946 -0.432739 0.000000 0.000000 0.000000 3.882912 5.154221 7.537200 40.066502 5.511343 0.188154 -15.065666 -1.359556 1.005843 -6.472002 4.962835 25.000000 -74.025894 30.013893 -21.090694 -76.539978 -25.848398 81.878403 -7.435587 -4.239608 -58.571667 -1.691934 -3.519066 24.638838 44.127666 6.315412 67.041328 -79.596581 -103.964676 -81.656372 -5.112344 20.140867 -84.535461 -11.121734 10.114627 20.028805 105.572807 16.296352 0.463225 -6.326088 16.505211 14.080711 14.408874 11.607628 4.340097 40.619141 -0.221673 2.672259 -19.357496 -8.695793 16.426512 
-3.537796 56.502583 8.928209 -7.403208 -5.936784 -0.636374 0.000000 0.000000 0.000000 2.353590 5.239742 7.598754 41.709358 4.446372 0.098296 -14.043332 -0.315443 0.629653 -1.507419 3.659454 24.831982 -71.523468 36.041157 -25.266687 -74.367241 -34.416756 86.538490 -6.878325 0.707557 -58.931091 -2.637652 -4.435668 24.504339 43.667694 10.017482 66.105606 -62.722454 -103.107674 -66.210228 -5.901536 20.296087 -85.103371 -11.776428 7.869841 19.189646 95.348137 16.238710 0.351554 -7.192523 15.277178 14.612624 24.435469 9.538227 3.691430 29.406075 -0.624903 1.484033 -17.513504 -6.629457 9.688478 
-3.259708 57.957413 9.667428 -10.222053 -4.123187 -0.878778 0.000000 0.000000 0.000000 2.302078 4.517850 7.427730 45.800148 2.323407 -0.084293 -14.449072 1.240075 0.478315 0.997868 1.109658 24.599611 -69.017815 43.185188 -31.846552 -75.442490 -42.733234 92.115501 -7.792739 0.093574 -58.475914 -1.216893 -6.081035 24.580215 46.362793 10.057925 67.225105 -39.605545 -108.956291 -32.416592 2.455406 11.582002 -82.826012 -5.351240 4.891968 18.584097 78.629372 13.829403 -0.058378 -7.181876 9.404992 8.556376 37.514175 4.940703 2.422291 17.478540 1.679417 0.905432 -12.075680 -2.419599 10.736471 
-3.077479 59.612934 10.452753 -17.653761 -3.629725 -2.332551 0.000000 0.000000 0.000000 8.107091 4.988958 7.370594 48.868660 -1.370888 -0.387733 -15.714642 1.708740 0.448739 8.376279 -3.372694 24.807394 -60.615810 44.290585 -37.205410 -73.634178 -52.032192 96.048424 -8.875693 -4.859084 -57.535839 1.085364 -6.540739 24.884714 47.243458 9.094092 67.792770 -41.606285 -111.130501 -33.948997 -1.673385 7.877624 -83.411018 9.198629 3.887342 18.312094 57.690475 8.245028 -0.686067 -9.427346 6.469168 14.721914 51.605164 0.615130 1.434677 11.058646 3.931448 0.886078 -5.006622 2.137347 18.212185 
-2.852201 59.852062 10.253903 -13.533916 -4.244468 -5.220243 0.000000 0.000000 0.000000 4.437352 6.990909 7.963751 47.636402 -4.892475 -0.638146 -15.210058 1.956742 0.259870 9.706472 -4.189776 24.970451 -61.957664 46.212036 -38.669472 -69.346375 -46.986927 99.247330 7.830823 -21.286579 -62.230106 1.903124 -9.499784 25.000000 48.491787 8.391365 68.469208 -44.196758 -115.458038 -33.992371 0.090132 10.477763 -82.957207 7.942633 4.705474 18.630711 43.676472 3.980104 -0.981402 -8.508590 3.002602 15.524472 45.657108 -0.761988 0.873757 19.083950 1.990804 1.116299 -2.045342 7.353927 33.162270 
-2.159949 59.753613 10.034995 -13.359402 -0.114016 -3.781516 0.000000 0.000000 0.000000 4.704945 3.270217 7.075757 45.764881 -3.836627 -0.543844 -15.325932 0.972977 -0.089874 7.881801 -1.883373 24.600811 -65.118652 43.932091 -34.745075 -69.848633 -42.291515 96.416695 8.629751 -24.356970 -62.980606 -0.588965 -9.834495 24.556164 47.836201 6.636714 68.551651 -56.658958 -116.603088 -50.918484 4.047730 15.386574 -82.123413 8.679609 -1.766471 16.439919 34.330761 4.966492 -0.253320 -7.920421 1.724243 17.001123 41.676270 -6.200942 -0.856876 30.378241 4.735192 2.758198 0.323439 -5.965666 29.343513 
-1.806918 59.284527 9.880515 -18.244602 3.320744 -1.982457 0.000000 0.000000 0.000000 10.919945 -1.083539 5.865037 43.589314 -0.778486 -0.302999 -15.918137 0.204351 -0.229939 5.530001 -1.638380 24.584328 -64.684052 39.777908 -31.415758 -73.087822 -39.560997 89.350830 3.414624 -26.560045 -60.618549 -2.946762 -8.374610 24.207542 46.837704 4.136054 68.629814 -65.692619 -120.116570 -53.203568 12.077326 18.109457 -79.945076 14.459051 -6.354184 14.667942 32.268585 5.770884 0.050230 -5.799492 0.967436 19.860447 41.941223 -10.146011 -2.119734 43.761181 7.168221 4.586746 2.914544 -16.233597 28.395718 
